<svg width="35" height="35" viewBox="0 0 35 35" fill="none" xmlns="http://www.w3.org/2000/svg">
<path d="M34.7474 0.00580263C32.4009 0.515908 14.3092 4.59988 9.8358 5.58572C9.7526 5.60405 9.67927 5.64316 9.62689 5.69714C9.5745 5.75112 9.54592 5.81703 9.54545 5.88491V25.1799C9.54557 25.2122 9.53291 25.2438 9.50922 25.2702C9.48554 25.2967 9.45199 25.3167 9.41321 25.3275L6.64403 26.0735C4.75483 26.6547 0 27.3765 0 30.6973C0 33.4736 2.44901 34.7235 4.55994 34.9375C4.81643 34.9737 5.07602 34.9946 5.33651 35C6.06932 35 8.95384 34.4469 10.6362 33.5876C12.7273 32.5167 12.7273 32.4971 12.7273 29.6849V13.2803C12.7273 13.21 12.7889 13.2147 12.8744 13.1967L31.5676 9.14084C31.5977 9.13432 31.6294 9.13346 31.66 9.13834C31.6906 9.14321 31.7193 9.15368 31.7438 9.16889C31.7683 9.18411 31.7879 9.20364 31.801 9.22591C31.8141 9.24818 31.8203 9.27256 31.8192 9.29707V21.4474C31.8191 21.4801 31.806 21.5118 31.7817 21.5383C31.7575 21.5648 31.7233 21.5846 31.6839 21.5951C30.799 21.8294 29.7719 22.1028 29.051 22.3075C25.9905 23.1762 22.2727 23.7206 22.2727 26.8727C22.2727 29.881 25.0827 31.1363 26.8764 31.234C27.5848 31.2762 28.2971 31.2499 28.9973 31.1558C29.8922 31.048 31.3926 30.695 32.7896 29.995C35 28.8873 35 28.8654 35 25.6228V0.156569C35.0001 0.132423 34.993 0.108594 34.9794 0.0869526C34.9658 0.0653108 34.9459 0.0464454 34.9215 0.0318372C34.897 0.0172289 34.8685 0.00727547 34.8383 0.00275833C34.8082 -0.00175882 34.777 -0.000716757 34.7474 0.00580263Z" fill="black"/>
</svg>
