<svg width="25" height="25" viewBox="0 0 25 25" fill="none" xmlns="http://www.w3.org/2000/svg">
<path d="M24.7067 23.1906L17.7537 16.1742C19.1143 14.4689 19.9347 12.308 19.9347 9.95834C19.9347 4.45847 15.4751 0 9.96733 0C4.45958 0 0 4.46498 0 9.96485C0 15.4647 4.45958 19.9232 9.96733 19.9232C12.3501 19.9232 14.5311 19.0901 16.2498 17.6972L23.1573 24.6681C23.3656 24.8894 23.6521 25 23.932 25C24.1989 25 24.4658 24.9024 24.6677 24.7071C25.0973 24.2971 25.1104 23.6202 24.7067 23.1906ZM9.96733 17.7818C7.87751 17.7818 5.91139 16.9682 4.43354 15.4908C2.95569 14.0133 2.1419 12.0476 2.1419 9.96485C2.1419 7.87555 2.95569 5.90992 4.43354 4.43895C5.91139 2.96147 7.87751 2.14788 9.96733 2.14788C12.0571 2.14788 14.0233 2.96147 15.5011 4.43895C16.979 5.91643 17.7927 7.88206 17.7927 9.96485C17.7927 12.0542 16.979 14.0198 15.5011 15.4908C14.0233 16.9682 12.0571 17.7818 9.96733 17.7818Z" fill="black"/>
</svg>
