<svg width="350" height="350" viewBox="0 0 350 350" fill="none" xmlns="http://www.w3.org/2000/svg">
<path d="M347.474 0.0580263C324.009 5.15909 143.092 45.9988 98.3579 55.8572C97.526 56.0405 96.7927 56.4316 96.2689 56.9714C95.745 57.5112 95.4592 58.1703 95.4545 58.8491V251.799C95.4557 252.122 95.3291 252.438 95.0922 252.702C94.8554 252.967 94.5199 253.167 94.1321 253.275L66.4403 260.735C47.5483 266.547 0 273.765 0 306.973C0 334.736 24.4901 347.235 45.5994 349.375C48.1643 349.737 50.7602 349.946 53.3651 350C60.6932 350 89.5384 344.469 106.362 335.876C127.273 325.167 127.273 324.971 127.273 296.849V132.803C127.273 132.1 127.889 132.147 128.744 131.967L315.676 91.4084C315.977 91.3432 316.294 91.3346 316.6 91.3834C316.906 91.4321 317.193 91.5368 317.438 91.689C317.683 91.8411 317.879 92.0364 318.01 92.2591C318.141 92.4818 318.203 92.7256 318.192 92.9707V214.474C318.191 214.801 318.06 215.118 317.817 215.383C317.575 215.648 317.233 215.846 316.839 215.951C307.99 218.294 297.719 221.028 290.51 223.075C259.905 231.762 222.727 237.206 222.727 268.727C222.727 298.81 250.827 311.363 268.764 312.34C275.848 312.762 282.971 312.499 289.973 311.558C298.922 310.48 313.926 306.95 327.896 299.95C350 288.873 350 288.655 350 256.228V1.56569C350.001 1.32423 349.93 1.08594 349.794 0.869526C349.657 0.653108 349.459 0.464454 349.215 0.318372C348.97 0.172289 348.685 0.0727547 348.383 0.0275833C348.081 -0.0175882 347.77 -0.00716756 347.474 0.0580263Z" fill="white"/>
</svg>
